Coordinates
version=1
nRows=21
nColumns=27
inDegrees=yes

Units are S.I. units (second, meters, Newtons, ...)
If the header above contains a line with 'inDegrees', this indicates whether rotational values are in degrees (yes) or radians (no).

endheader
time	pelvis_rotation	pelvis_tilt	pelvis_list	pelvis_tx	pelvis_ty	pelvis_tz	hip_flexion_r	hip_adduction_r	hip_rotation_r	knee_angle_r	knee_rotation_r	knee_adduction_r	knee_angle_r_beta	ankle_angle_r	subtalar_angle_r	mtp_angle_r	hip_flexion_l	hip_adduction_l	hip_rotation_l	knee_angle_l	knee_rotation_l	knee_adduction_l	knee_angle_l_beta	ankle_angle_l	subtalar_angle_l	mtp_angle_l
      5.24500000	     14.75619986	    -36.54260464	      7.68942228	     -0.06497295	      0.67270739	     -1.18762658	     93.67594341	    -46.55962331	     -3.94939623	     71.34444598	      0.00000000	      8.20441228	      1.24519549	      7.72193437	      0.00000000	      0.00000000	     95.16272620	    -18.48005647	     -1.02232240	     66.71879264	      0.00000000	     -9.69000661	      1.16446260	      2.06279533	      0.00000000	      0.00000000
      5.25000000	     15.68772372	    -36.27768464	      7.37692455	     -0.06365749	      0.67322816	     -1.18799738	     92.17654896	    -47.76885863	     -5.85584650	     71.22666990	      0.00000000	      8.91475133	      1.24313991	      7.93920196	      0.00000000	      0.00000000	     95.22920885	    -17.61158564	     -0.25042197	     66.69620287	      0.00000000	     -9.83196040	      1.16406834	      2.06626159	      0.00000000	      0.00000000
      5.25500000	     15.60440025	    -36.27608774	      7.58770294	     -0.06344875	      0.67342580	     -1.18807689	     92.48209119	    -47.67052713	     -5.40567531	     71.23687676	      0.00000000	      8.90377871	      1.24331805	      7.87598368	      0.00000000	      0.00000000	     95.05339384	    -17.70958020	     -0.55294978	     66.64240640	      0.00000000	     -9.83239273	      1.16312941	      2.10060434	      0.00000000	      0.00000000
      5.26000000	     15.64130333	    -36.26937689	      7.52097298	     -0.06308427	      0.67377506	     -1.18799718	     92.25607789	    -47.69678614	     -5.62510793	     71.17325284	      0.00000000	      8.91187224	      1.24220760	      7.92088719	      0.00000000	      0.00000000	     95.02100497	    -17.68194261	     -0.47991093	     66.58911983	      0.00000000	     -9.83257535	      1.16219939	      2.09121335	      0.00000000	      0.00000000
      5.26500000	     15.56572811	    -36.34109392	      7.17956323	     -0.06277463	      0.67407555	     -1.18764835	     91.86520628	    -47.61063280	     -6.17263487	     71.12363850	      0.00000000	      8.91179260	      1.24134167	      7.85084700	      0.00000000	      0.00000000	     95.18624125	    -17.75559183	     -0.15359363	     66.58934252	      0.00000000	     -9.83298532	      1.16220327	      2.05246835	      0.00000000	      0.00000000
      5.27000000	     15.64103290	    -36.18614518	      7.53850714	     -0.06238338	      0.67438852	     -1.18796175	     92.03403467	    -47.70452316	     -5.70125570	     71.09390604	      0.00000000	      8.91624509	      1.24082274	      7.89928494	      0.00000000	      0.00000000	     94.79722831	    -17.69421849	     -0.55735590	     66.48661166	      0.00000000	     -9.83326677	      1.16041028	      2.11035992	      0.00000000	      0.00000000
      5.27500000	     15.70970183	    -36.14799719	      7.45641569	     -0.06197391	      0.67474071	     -1.18790493	     91.73638929	    -47.77946097	     -5.98943046	     71.03414866	      0.00000000	      8.91587441	      1.23977978	      7.92361482	      0.00000000	      0.00000000	     94.74692038	    -17.63103738	     -0.45052891	     66.43777361	      0.00000000	     -9.83380855	      1.15955790	      2.10498511	      0.00000000	      0.00000000
      5.28000000	     15.76897406	    -36.07796779	      7.36251609	     -0.06154358	      0.67510167	     -1.18782913	     91.38135431	    -47.85607098	     -6.31332597	     70.96160832	      0.00000000	      8.92856991	      1.23851371	      7.95644330	      0.00000000	      0.00000000	     94.66129021	    -17.57468116	     -0.34185010	     66.38007983	      0.00000000	     -9.83431418	      1.15855095	      2.10537091	      0.00000000	      0.00000000
      5.28500000	     14.85512968	    -36.31626377	      7.60002889	     -0.06217243	      0.67518951	     -1.18734869	     92.60539390	    -46.68142192	     -4.63365351	     71.00062010	      0.00000000	      8.23629367	      1.23919459	      7.72601268	      0.00000000	      0.00000000	     94.48697196	    -18.43700933	     -1.07676336	     66.31471013	      0.00000000	     -9.69523265	      1.15741003	      2.08834547	      0.00000000	      0.00000000
      5.29000000	     15.71463561	    -36.05906725	      7.34339414	     -0.06103377	      0.67566380	     -1.18771266	     91.22990373	    -47.78332207	     -6.37469350	     70.87806102	      0.00000000	      8.93421738	      1.23705553	      7.96039616	      0.00000000	      0.00000000	     94.52042251	    -17.64648678	     -0.40544613	     66.27954477	      0.00000000	     -9.83602365	      1.15679628	      2.08710474	      0.00000000	      0.00000000
      5.29500000	     14.81841181	    -36.26365783	      7.49937966	     -0.06157728	      0.67580336	     -1.18718386	     92.27679496	    -46.63874612	     -4.86924159	     70.89068710	      0.00000000	      8.23408556	      1.23727590	      7.70642796	      0.00000000	      0.00000000	     94.34882669	    -18.48217521	     -1.04116337	     66.21783514	      0.00000000	     -9.69743347	      1.15571925	      2.07050605	      0.00000000	      0.00000000
      5.30000000	     15.80488123	    -35.94605945	      7.30103796	     -0.06028995	      0.67630359	     -1.18771289	     90.80404128	    -47.90091566	     -6.70130014	     70.75672861	      0.00000000	      8.94696710	      1.23493788	      7.90836696	      0.00000000	      0.00000000	     94.32223662	    -17.56994811	     -0.36405314	     66.17838203	      0.00000000	     -9.83574531	      1.15503066	      2.08234237	      0.00000000	      0.00000000
      5.30500000	     15.68097849	    -35.95808373	      7.49078877	     -0.06019774	      0.67646654	     -1.18776506	     91.13992456	    -47.76529648	     -6.22947546	     70.77675823	      0.00000000	      8.94057492	      1.23528746	      7.87402440	      0.00000000	      0.00000000	     94.17161366	    -17.70007510	     -0.66706313	     66.13445096	      0.00000000	     -9.83646083	      1.15426392	      2.10313762	      0.00000000	      0.00000000
      5.31000000	     14.82921064	    -36.12613373	      7.52236921	     -0.06063705	      0.67672113	     -1.18715918	     91.88088899	    -46.67033561	     -5.05131165	     70.71616688	      0.00000000	      8.24714590	      1.23422995	      7.79680076	      0.00000000	      0.00000000	     94.00541356	    -18.47432402	     -1.13313024	     66.05127806	      0.00000000	     -9.69996780	      1.15281228	      2.09056416	      0.00000000	      0.00000000
      5.31500000	     15.68157334	    -35.89913680	      7.44904754	     -0.05958228	      0.67704875	     -1.18772654	     90.85787901	    -47.78513263	     -6.43760677	     70.68009067	      0.00000000	      8.95528649	      1.23360030	      7.86638957	      0.00000000	      0.00000000	     94.01370569	    -17.70225961	     -0.66212725	     66.04393622	      0.00000000	     -9.83697707	      1.15268414	      2.10469061	      0.00000000	      0.00000000
      5.32000000	     15.66219131	    -35.86439803	      7.42705446	     -0.05927681	      0.67734441	     -1.18770620	     90.72100632	    -47.77521087	     -6.52260052	     70.62886264	      0.00000000	      8.96038396	      1.23270620	      7.86694452	      0.00000000	      0.00000000	     93.92227792	    -17.72012425	     -0.67042045	     65.99896099	      0.00000000	     -9.83730209	      1.15189917	      2.10817829	      0.00000000	      0.00000000
      5.32500000	     14.82909177	    -36.03796589	      7.47791863	     -0.05968518	      0.67756738	     -1.18717955	     91.51719245	    -46.71877487	     -5.31115849	     70.60226749	      0.00000000	      8.28353112	      1.23224203	      7.71600172	      0.00000000	      0.00000000	     93.76607206	    -18.47710578	     -1.15503063	     65.93042203	      0.00000000	     -9.69976553	      1.15070294	      2.09620245	      0.00000000	      0.00000000
      5.33000000	     15.63498203	    -35.84678145	      7.21330706	     -0.05863372	      0.67799038	     -1.18755492	     90.23490160	    -47.75135964	     -7.02134124	     70.49199712	      0.00000000	      8.97784461	      1.23031745	      7.97030632	      0.00000000	      0.00000000	     93.87326909	    -17.73897411	     -0.47872606	     65.91863665	      0.00000000	     -9.83794674	      1.15049725	      2.09461443	      0.00000000	      0.00000000
      5.33500000	     14.77811730	    -35.98230783	      7.41749695	     -0.05904731	      0.67817822	     -1.18716900	     91.24498219	    -46.69492847	     -5.49591987	     70.49568390	      0.00000000	      8.30314596	      1.23038179	      7.68574552	      0.00000000	      0.00000000	     93.59800004	    -18.51256021	     -1.15311493	     65.84465470	      0.00000000	     -9.70072472	      1.14920602	      2.10822597	      0.00000000	      0.00000000
      5.34000000	     15.65213670	    -35.71522649	      7.17040535	     -0.05783121	      0.67867841	     -1.18764415	     89.83050896	    -47.82772654	     -7.29840787	     70.37454486	      0.00000000	      8.99249509	      1.22826752	      7.87576565	      0.00000000	      0.00000000	     93.62111153	    -17.70452602	     -0.46507598	     65.82366209	      0.00000000	     -9.83813819	      1.14883963	      2.14439197	      0.00000000	      0.00000000
      5.34500000	     15.56647918	    -35.73276262	      7.22142001	     -0.05762572	      0.67900544	     -1.18767068	     89.90828733	    -47.74396733	     -7.17563175	     70.32632497	      0.00000000	      8.99303267	      1.22742592	      7.80260522	      0.00000000	      0.00000000	     93.52700139	    -17.78248401	     -0.58704462	     65.76388072	      0.00000000	     -9.83698732	      1.14779625	      2.12795963	      0.00000000	      0.00000000
